<svg version="1.2" xmlns="http://www.w3.org/2000/svg" viewBox="0 0 1006 280" width="1006" height="280">
	<title>Screenshot 2024-06-27 at 8</title>
	<style>
		.s0 { fill: #B53F4D }
		.s1 { fill: #DDD }
		.s2 { fill: #DDD }
	</style>
	<path id="Layer" class="s0" d="m230.9 252.9c-9.8 5.1-19.9 7.8-30.6 7.8q-87 0-174 0c-1.3 0-2.6-0.2-3.8-0.3-1.7-11.1 7.6-24.7 19.6-28.2 3.9-1.2 8.1-1.7 12.2-1.7q65.8-0.2 131.5-0.1c6.8 0.1 12.2-2.3 15.3-8.4 4.8-9.4-1.2-20.2-11.9-21.5-2.3-0.3-4.7-0.2-7-0.2-28.5 0-57 0.2-85.5-0.1-34.3-0.3-63.3-22.8-72.1-55.5-9.6-35.5 7.7-71.9 41.4-87.5 13.8-6.4 28.3-8.5 43.3-7.7 4 0.2 6.1-1 7.9-4.8 7.8-16.8 25-27 44.5-25.1 22.3 2.1 42.8 9.8 59.9 24.8 4.2 3.8 8.2 5.3 13.6 5.1 9.1-0.3 18.3-0.1 27.6-0.1 0 10.3 0 20.1 0 30.3-10.6 0-20.9 0.1-31.2 0-3.2-0.1-5.4 0.9-7.8 3.2-12.8 12.4-28.6 19.5-45.5 23.7-8.7 2.1-17.8 2.9-26.7 3.1-17.6 0.5-35.3 0.1-53 0.2-9.5 0-16.4 6.4-16.4 15 0 8.7 6.9 15.1 16.5 15.1 35.2 0 70.3-0.2 105.5 0.1 26 0.2 48.7 17.7 56.1 42.6 7.9 26-1.7 52.3-24.4 67.2-1.5 1-3.1 1.9-5 3z"/>
	<path id="Layer" class="s1" d="m445.2 97.2c8.4-9.7 16.8-19 24.7-28.7 3.3-4 6.7-6 11.9-4.7 3.7 0.9 7.6 1 11.2 2.1 16.7 5.2 23.2 21.7 14.3 36.7-3 5-7 9.7-11.1 14-10.8 11.1-21.9 22-32.9 32.9-1.3 1.2-3 2.1-4.8 3.4 6.3 7.1 11.6 13.2 17.2 19.2 12.8 13.8 25.6 27.6 38.6 41.2 2.5 2.6 3 5.2 2.3 8.5-4.3 20.5-31.4 28.9-47.9 14-10.2-9.2-19-20-28.2-30.3-7.4-8.2-14.4-16.6-21.5-25-1.1-1.2-2-2.5-4.1-3.2-0.1 1.7-0.2 3.5-0.2 5.2 0 17.5-0.1 35 0.1 52.5 0 3.5-1 5.3-4.6 5.3-10.3 0.2-20.6 1.2-30.8 0.5-9.5-0.8-14.5-7.1-15.4-16.8-0.2-2.1-0.2-4.3-0.2-6.5q-0.1-73.9-0.1-147.9c0-1.3 0-2.6 0-4.3 12.4-2.3 24.5-4 36.8-1.2 8.4 2 13.2 7.9 13.5 17.5 0.3 12.7 0.1 25.3 0.2 38 0 3.8 0 7.6 0 13 10.8-12.4 20.8-23.8 31-35.4z"/>
	<path id="Layer" fill-rule="evenodd" class="s1" d="m715 95.8c16.3 0.7 31.5 3.5 44.7 13.1 11.4 8.3 17.9 19.6 18.2 33.4 0.6 24.2 0.3 48.3 0.4 72.5 0 5.9-3 10.4-7.3 14.2-10.1 8.7-22.2 12.5-35 14.4-19.3 2.8-38.6 3.4-57.4-2.6-7.3-2.3-14.5-6.1-20.6-10.7-20-14.9-21.5-60.9 12.9-71 13.1-3.9 27.1-4.9 40.7-7 6.2-1 12.5-1.5 18.6-2.2 0.8-7.1-1-11.9-7.4-13.7-7.9-2.2-16.4-4.1-24.4-3.5-11.1 0.8-22.1 3.8-33.1 6.5-3.4 0.9-5.2 0.2-7.1-2.2-9.8-12.1-6.6-28.8 7.8-34.3 9.3-3.6 19.5-4.9 29.5-6.5 6.2-0.9 12.6-0.3 19.5-0.4zm12.5 111.2c1.2-0.9 3.3-1.9 3.3-2.9 0.3-7.1 0.2-14.2 0.2-22-10.2 1.2-19.8 1.8-29.2 3.7-7.7 1.5-10.3 5.3-10 11.5 0.3 6 4 10.7 11.2 11.2 7.8 0.5 15.8-0.8 24.5-1.5z"/>
	<path id="Layer" class="s1" d="m890.9 103c0-9.5-0.1-18.5 0.1-27.5 0.1-1.5 1.6-4.1 2.6-4.2 9.6-0.7 19.3-2.1 28.7-1.2 12 1.3 16.5 7.3 16.9 19.6 0.3 6.9 0.1 13.9 0.1 21.2 11.5 0 22.3 0.3 33.1-0.1 4.4-0.1 6.6 1.4 7.2 5.4 1 5.4 2.4 10.8 2.4 16.1-0.1 10.4-5.8 15.9-16.3 16.3-6.9 0.2-14 0-20.9 0-1.7 0-3.3 0-5.5 0 0 8.3 0 15.9 0.1 23.5 0 7.3-0.2 14.7 0.3 22 0.4 6.5 3.1 10.1 9.6 10.8 7.2 0.8 14.6 0.4 21.7-0.5 3.4-0.4 4.8 0.2 6.4 2.9 8.7 14.7 1.9 31.4-14.9 35.6-14.2 3.5-28.5 3-42.4-1.3-19-5.8-28.8-19.7-29-41.2-0.3-32.3-0.2-64.6-0.2-97.4z"/>
	<path id="Layer" class="s1" d="m622.2 98.6c12.9 6.1 17.6 21.9 10.1 33.4-0.8 1.1-3 1.6-4.6 1.9q-18.1 3-36.3 5.8c-4.2 0.6-5.5 2.6-5.5 7 0.2 29.7 0.1 59.3 0.2 88.9 0 3.7-0.7 5.6-4.7 5.7-9.1 0.2-18.3 1.4-27.3 0.7-11.1-0.8-16.9-7.6-17.1-18.9-0.2-21.5-0.1-43-0.1-64.5 0-8 0.3-16-0.1-23.9-0.6-11.8 5.1-19.8 14.7-25.3 12.2-6.9 25.4-10.6 39.2-12.4 10.5-1.4 20.9-2.1 31.5 1.6z"/>
	<path id="Layer" class="s2" d="m859.1 141c0 33.3 0 66.1 0 99.1-12 2.5-23.6 4.3-35.4 1.5-8.6-2-13.5-8.9-13.6-19.1-0.2-13.2-0.1-26.3-0.1-39.5 0-26.8 0-53.6 0-80.8 12.4-2.7 24.7-4.6 37-1 7.2 2.1 11.7 8.9 12 17.8 0.2 7.2 0.1 14.3 0.1 22z"/>
	<path id="Layer" class="s1" d="m846.6 37.1c11.9 6.8 16.6 16.7 14.3 29.4-1.8 10.4-10.7 18.4-22.1 20.2-11.9 1.8-23.4-3.4-28.2-13.5-4.7-9.9-4.3-19.8 2.5-28.7 7.3-9.4 17.4-10.8 28.4-9 1.6 0.3 3.2 1 5.1 1.6z"/>
</svg>
