<svg version="1.2" xmlns="http://www.w3.org/2000/svg" viewBox="0 0 270 280" width="270" height="280">
	<title>krait-full-logo-svg</title>
	<style>
		.s0 { fill: #B53F4D }
	</style>
	<path id="Layer" class="s0" d="m220.9 252.9c-9.8 5.1-19.9 7.8-30.6 7.8q-87 0-174 0c-1.3 0-2.6-0.2-3.8-0.3-1.7-11.1 7.6-24.7 19.6-28.2 3.9-1.2 8.1-1.7 12.2-1.7q65.8-0.2 131.5-0.1c6.8 0.1 12.2-2.3 15.3-8.4 4.8-9.4-1.2-20.2-11.9-21.5-2.3-0.3-4.7-0.2-7-0.2-28.5 0-57 0.2-85.5-0.1-34.3-0.3-63.3-22.8-72.1-55.5-9.6-35.5 7.7-71.9 41.4-87.5 13.8-6.4 28.3-8.5 43.3-7.7 4 0.2 6.1-1 7.9-4.8 7.8-16.8 25-27 44.5-25.1 22.3 2.1 42.8 9.8 59.9 24.8 4.2 3.8 8.2 5.3 13.6 5.1 9.1-0.3 18.3-0.1 27.6-0.1 0 10.3 0 20.1 0 30.3-10.6 0-20.9 0.1-31.2 0-3.2-0.1-5.4 0.9-7.8 3.2-12.8 12.4-28.6 19.5-45.5 23.7-8.7 2.1-17.8 2.9-26.7 3.1-17.6 0.5-35.3 0.1-53 0.2-9.5 0-16.4 6.4-16.4 15 0 8.7 6.9 15.1 16.5 15.1 35.2 0 70.3-0.2 105.5 0.1 26 0.2 48.7 17.7 56.1 42.6 7.9 26-1.7 52.3-24.4 67.2-1.5 1-3.1 1.9-5 3z"/>
</svg>
